<svg width="624" height="648" viewBox="0 0 104 108" xmlns="http://www.w3.org/2000/svg" id="svg" style="background: transparent none repeat scroll 0% 0%;" preserveAspectRatio="xMidYMid meet" buffered-rendering="static" xmlns:xlink="http://www.w3.org/1999/xlink"><g><path d="M 51 -0.01325 C 50.175 -0.04182 48.6 0.8813 47.5 2.03813 C 46.4 3.19496 42.125 6.4594 38 9.29244 C 33.875 12.12548 27.125 15.90734 23 17.69657 C 18.875 19.4858 13.5875 21.18603 11.25 21.47486 C 8.9125 21.76369 7 22.45 7 23 C 7 23.55 7.7875 23.99219 8.75 23.98264 C 9.7125 23.97309 13.425 23.36058 17 22.62152 C 20.575 21.88245 27.1 19.41445 31.5 17.13707 C 35.9 14.85969 42.2 10.99616 45.5 8.55146 L 51.5 4.10654 L 56.10143 8.30327 C 58.63222 10.61147 63.58222 14.18763 67.10143 16.25029 C 70.62065 18.31294 78.10898 21.46294 83.74217 23.25029 L 93.98434 26.5 L 93.99599 30 C 94.0024 31.925 93.51001 38.45 92.90178 44.5 C 92.29356 50.55 90.68487 59.325 89.3269 64 C 87.96894 68.675 85.42735 75.17649 83.67894 78.44776 C 81.93052 81.71903 78.25 86.85757 75.5 89.86674 C 72.75 92.87592 68.25 96.78998 65.5 98.56465 C 62.75 100.33933 58.1375 102.73828 55.25 103.89567 L 50 106 L 45.75 103.87942 C 43.4125 102.7131 39.5875 100.2381 37.25 98.37942 C 34.9125 96.52074 32.6625 95.25965 32.25 95.577 C 31.8375 95.89435 33.075 97.495 35 99.13401 C 36.925 100.77302 40.3 103.45128 42.5 105.0857 C 45.49127 107.30796 47.57177 108.05013 50.75 108.02868 C 53.79653 108.00812 57.61932 106.66891 64.25 103.2993 C 70.92666 99.90633 75.23874 96.84614 79.75 92.2993 C 84.23507 87.77886 87.11097 83.67029 89.93418 77.75 C 92.09798 73.2125 94.55581 66.8 95.39603 63.5 C 96.23624 60.2 97.41916 53.225 98.02473 48 C 98.63029 42.775 98.98496 34.72243 98.81288 30.1054 C 98.58011 23.86024 98.11592 21.52533 97 20.98646 C 96.175 20.58807 92.35 19.51738 88.5 18.60715 C 84.65 17.69692 78.125 15.34782 74 13.38692 C 69.875 11.42602 63.35 7.62049 59.5 4.93017 C 55.65 2.23985 51.825 0.01531 51 -0.01325 Z " class="odd" fill="#fffffd"></path><path d="M 27.5 32 L 17 32 L 16 34.5 C 15.45 35.875 15.01319 38.2375 15.02931 39.75 L 15.05863 42.5 L 18.02931 39.25 C 20.64031 36.39351 21.54444 36.03027 25.49652 36.25 L 29.99304 36.5 L 22.49652 47.25 C 18.37343 53.1625 15 58.9 15 60 L 15 62 L 26 62 L 37 62 L 38.25 58.02825 C 38.9375 55.84379 39.15779 53.70629 38.73953 53.27825 C 38.32128 52.85021 36.74628 53.74742 35.23953 55.27205 C 32.84849 57.69148 31.84313 58.0095 27.33621 57.77205 L 22.17243 57.5 L 30.031 46.5 C 34.35322 40.45 37.91442 34.7125 37.94479 33.75 C 37.99398 32.19094 36.85437 32 27.5 32 Z " class="odd" fill="#fffffd"></path><path d="M 75 32 L 62 32 L 61 34.5 C 60.45 35.875 60 37.675 60 38.5 C 60 39.325 60.3375 40.01467 60.75 40.03259 C 61.1625 40.05052 62.4 39.13585 63.5 38 C 64.6 36.86415 66.7375 35.94948 68.25 35.96741 L 71 36 L 70.75 47.25 L 70.5 58.5 L 68.25 58.75 C 67.0125 58.8875 66 59.675 66 60.5 C 66 61.70833 67.55556 62 74 62 C 80.44444 62 82 61.70833 82 60.5 C 82 59.675 80.875 58.775 79.5 58.5 L 77 58 L 77 47 L 77 36 L 80.5 36 C 82.91929 36 84.38597 36.61857 85.25 38.00332 C 85.9375 39.10514 87.0625 40.00514 87.75 40.00332 C 88.4375 40.00149 88.99386 39.2125 88.98635 38.25 C 88.97884 37.2875 88.75384 35.4875 88.48635 34.25 L 88 32 L 75 32 Z " class="odd" fill="#fffffd"></path><path d="M 54.5 47.37153 C 52.3 47.15031 49.15 47.56679 47.5 48.29704 C 45.85 49.02729 43.70902 50.7217 42.74227 52.06239 C 41.77552 53.40307 40.98454 55.85 40.98454 57.5 C 40.98454 59.15 41.77552 61.6045 42.74227 62.95445 C 43.70902 64.3044 47.2 66.62012 50.5 68.10049 C 53.8 69.58087 57.4 71.76251 58.5 72.94859 C 60.14169 74.71874 60.31755 75.58837 59.48159 77.80255 C 58.7409 79.76442 57.65012 80.5869 55.48159 80.81869 C 53.84172 80.99396 51.4875 80.88146 50.25 80.56869 C 49.0125 80.25591 47.1 78.425 46 76.5 C 44.7619 74.33333 43.2381 73 42 73 C 40.59987 73 40.12758 73.52489 40.42534 74.75 C 40.65928 75.7125 41.10928 77.9625 41.42534 79.75 C 41.8809 82.32643 42.67357 83.21068 45.25 84.01656 C 47.0375 84.57567 50.525 85.02398 53 85.01282 C 55.71426 85.00058 58.7897 84.20034 60.75 82.99626 C 62.5375 81.89832 64.45 79.875 65 78.5 C 65.55 77.125 66.01556 74.7625 66.03459 73.25 C 66.05361 71.7375 65.04111 69.17785 63.78459 67.56189 C 62.48881 65.89545 58.36208 63.19034 54.25 61.31189 C 48.39729 58.6383 46.99679 57.56636 46.98333 55.75 C 46.97417 54.5125 47.53667 52.93 48.23333 52.23333 C 48.93 51.53667 50.7375 50.97417 52.25 50.98333 C 53.7625 50.9925 55.7875 51.3905 56.75 51.86777 C 57.7125 52.34505 59.175 54.16291 60 55.90746 C 60.825 57.65201 62.0625 59.06151 62.75 59.03968 C 63.55894 59.014 64 57.41217 64 54.5 C 64 50.52742 63.67769 49.86954 61.25 48.88688 C 59.7375 48.27466 56.7 47.59275 54.5 47.37153 Z " class="odd" fill="#fffffd"></path></g></svg>