<svg xmlns="http://www.w3.org/2000/svg" xmlns:xlink="http://www.w3.org/1999/xlink" width="200" zoomAndPan="magnify" viewBox="0 0 150 149.999998" height="200" preserveAspectRatio="xMidYMid meet" version="1.0"><defs><g/></defs><g fill="#eceff4" fill-opacity="1"><g transform="translate(16.542882, 143.25255)"><g><path d="M 35.054688 -3.523438 C 37.601562 -2.351562 39.953125 -1.371094 42.496094 -0.585938 C 45.238281 0.390625 47.785156 0.980469 50.527344 1.371094 C 53.269531 1.761719 56.011719 2.152344 58.949219 1.957031 C 63.453125 1.957031 68.152344 1.371094 72.65625 0.195312 C 76.964844 -0.980469 81.273438 -2.742188 85.191406 -5.09375 C 89.304688 -7.441406 93.023438 -10.378906 96.351562 -13.707031 C 99.488281 -16.84375 102.425781 -20.757812 104.578125 -24.871094 C 106.929688 -28.789062 108.496094 -33.097656 109.867188 -37.601562 C 111.238281 -42.105469 111.824219 -46.804688 111.824219 -51.507812 L 111.824219 -133.5625 C 111.824219 -133.953125 111.824219 -134.347656 111.824219 -134.738281 C 111.824219 -135.324219 111.824219 -135.71875 111.628906 -136.109375 C 111.628906 -136.5 111.238281 -136.890625 110.84375 -136.890625 C 110.453125 -137.089844 110.0625 -137.089844 109.472656 -137.089844 C 109.082031 -137.089844 108.691406 -137.089844 108.300781 -137.089844 L 97.722656 -137.089844 C 97.136719 -137.089844 96.746094 -137.089844 96.15625 -137.089844 C 95.765625 -137.089844 95.179688 -137.089844 94.785156 -136.890625 C 94.394531 -136.890625 94.199219 -136.5 94.003906 -136.109375 C 93.808594 -135.914062 93.808594 -135.71875 93.808594 -135.519531 C 93.808594 -135.324219 93.808594 -134.933594 93.808594 -134.738281 C 93.808594 -134.347656 94.003906 -133.953125 94.003906 -133.5625 L 94.003906 -51.507812 C 94.003906 -48.371094 93.613281 -45.238281 92.828125 -42.105469 C 91.847656 -39.167969 90.871094 -36.230469 89.304688 -33.488281 C 87.734375 -30.746094 85.972656 -28.398438 83.820312 -26.242188 C 81.46875 -23.890625 79.121094 -22.128906 76.378906 -20.5625 C 73.636719 -18.996094 70.894531 -17.820312 67.957031 -17.039062 C 65.019531 -16.253906 61.886719 -15.863281 58.949219 -15.863281 C 57.382812 -15.667969 56.011719 -15.863281 54.445312 -16.058594 C 53.074219 -16.253906 51.507812 -16.449219 50.136719 -16.84375 C 49.15625 -17.039062 48.175781 -17.429688 47.199219 -17.820312 C 47.199219 -17.820312 35.054688 -3.722656 35.054688 -3.523438 Z M 20.953125 -14.101562 C 11.359375 -24.285156 5.875 -37.601562 5.875 -51.507812 L 5.875 -133.5625 C 5.875 -137.480469 5.484375 -137.089844 9.398438 -137.089844 C 18.605469 -137.089844 23.304688 -128.273438 23.5 -115.546875 C 23.5 -90.476562 23.695312 -76.378906 23.695312 -51.507812 C 23.695312 -42.496094 26.832031 -33.683594 32.902344 -27.027344 C 32.902344 -27.027344 20.953125 -14.296875 20.953125 -14.101562 Z M 20.953125 -14.101562 "/></g></g></g></svg>