<svg xmlns="http://www.w3.org/2000/svg" xmlns:xlink="http://www.w3.org/1999/xlink" width="1000" zoomAndPan="magnify" viewBox="0 0 750 374.999991" height="500" preserveAspectRatio="xMidYMid meet" version="1.0"><defs><g/><clipPath id="7115af31d1"><path d="M 233.539062 69.664062 L 244.039062 69.664062 L 244.039062 305.164062 L 233.539062 305.164062 Z M 233.539062 69.664062 " clip-rule="nonzero"/></clipPath></defs><g clip-path="url(#7115af31d1)"><path fill="#eceff4" d="M 233.566406 69.664062 L 233.566406 305.164062 L 244.011719 305.164062 L 244.011719 69.664062 Z M 233.566406 69.664062 " fill-opacity="1" fill-rule="nonzero"/></g><g fill="#ff6e42" fill-opacity="1"><g transform="translate(49.461392, 272.437233)"><g><path d="M 43.460938 -4.371094 C 46.617188 -2.914062 49.53125 -1.699219 52.6875 -0.726562 C 56.085938 0.484375 59.242188 1.214844 62.640625 1.699219 C 66.039062 2.183594 69.441406 2.671875 73.082031 2.429688 C 78.667969 2.429688 84.492188 1.699219 90.078125 0.242188 C 95.417969 -1.214844 100.761719 -3.398438 105.617188 -6.3125 C 110.714844 -9.226562 115.328125 -12.867188 119.457031 -16.996094 C 123.339844 -20.878906 126.984375 -25.738281 129.652344 -30.835938 C 132.566406 -35.691406 134.511719 -41.03125 136.210938 -46.617188 C 137.910156 -52.203125 138.636719 -58.027344 138.636719 -63.855469 L 138.636719 -165.589844 C 138.636719 -166.074219 138.636719 -166.558594 138.636719 -167.042969 C 138.636719 -167.773438 138.636719 -168.257812 138.394531 -168.746094 C 138.394531 -169.230469 137.910156 -169.714844 137.421875 -169.714844 C 136.9375 -169.957031 136.453125 -169.957031 135.722656 -169.957031 C 135.238281 -169.957031 134.753906 -169.957031 134.265625 -169.957031 L 121.15625 -169.957031 C 120.425781 -169.957031 119.941406 -169.957031 119.214844 -169.957031 C 118.726562 -169.957031 118 -169.957031 117.515625 -169.714844 C 117.027344 -169.714844 116.785156 -169.230469 116.542969 -168.746094 C 116.300781 -168.5 116.300781 -168.257812 116.300781 -168.015625 C 116.300781 -167.773438 116.300781 -167.289062 116.300781 -167.042969 C 116.300781 -166.558594 116.542969 -166.074219 116.542969 -165.589844 L 116.542969 -63.855469 C 116.542969 -59.972656 116.058594 -56.085938 115.085938 -52.203125 C 113.871094 -48.558594 112.65625 -44.917969 110.714844 -41.519531 C 108.773438 -38.121094 106.589844 -35.207031 103.917969 -32.535156 C 101.003906 -29.621094 98.089844 -27.4375 94.691406 -25.492188 C 91.292969 -23.550781 87.894531 -22.09375 84.25 -21.125 C 80.609375 -20.152344 76.722656 -19.667969 73.082031 -19.667969 C 71.140625 -19.421875 69.441406 -19.667969 67.496094 -19.910156 C 65.796875 -20.152344 63.855469 -20.394531 62.15625 -20.878906 C 60.941406 -21.125 59.726562 -21.609375 58.515625 -22.09375 C 58.515625 -22.09375 43.460938 -4.613281 43.460938 -4.371094 Z M 25.980469 -17.480469 C 14.082031 -30.105469 7.285156 -46.617188 7.285156 -63.855469 L 7.285156 -165.589844 C 7.285156 -170.445312 6.796875 -169.957031 11.652344 -169.957031 C 23.066406 -169.957031 28.894531 -159.03125 29.136719 -143.25 C 29.136719 -112.171875 29.378906 -94.691406 29.378906 -63.855469 C 29.378906 -52.6875 33.261719 -41.761719 40.789062 -33.507812 C 40.789062 -33.507812 25.980469 -17.722656 25.980469 -17.480469 Z M 25.980469 -17.480469 "/></g></g></g><g fill="#eceff4" fill-opacity="1"><g transform="translate(288.380146, 166.878685)"><g><path d="M 57.800781 -71.484375 L 47.484375 -71.484375 C 46.566406 -71.484375 45.851562 -70.769531 45.851562 -69.746094 L 45.851562 -27.367188 C 45.851562 -23.488281 44.320312 -19.8125 41.5625 -17.054688 C 38.804688 -14.296875 35.128906 -12.765625 31.25 -12.765625 C 27.46875 -12.765625 23.792969 -14.296875 21.140625 -17.054688 C 18.382812 -19.8125 16.851562 -23.488281 16.851562 -27.367188 L 16.851562 -69.746094 C 16.851562 -70.769531 16.136719 -71.484375 15.011719 -71.484375 L 4.800781 -71.484375 C 3.777344 -71.484375 3.0625 -70.769531 3.0625 -69.746094 L 3.0625 -27.367188 C 3.0625 -19.914062 6.023438 -12.765625 11.335938 -7.351562 C 16.644531 -2.042969 23.792969 1.019531 31.25 1.019531 C 38.804688 1.019531 45.953125 -2.042969 51.265625 -7.351562 C 56.574219 -12.765625 59.535156 -19.914062 59.535156 -27.367188 L 59.535156 -69.746094 C 59.535156 -70.769531 58.71875 -71.484375 57.800781 -71.484375 Z M 57.800781 -71.484375 "/></g></g></g><g fill="#eceff4" fill-opacity="1"><g transform="translate(350.569546, 166.878685)"><g><path d="M 45.546875 -1.734375 C 45.546875 -0.714844 44.832031 0 43.910156 0 L 33.800781 0 C 32.882812 0 32.066406 -0.714844 32.066406 -1.734375 L 32.066406 -27.574219 C 32.066406 -31.757812 28.492188 -34.824219 24.40625 -34.824219 C 20.21875 -34.824219 16.644531 -31.757812 16.542969 -27.675781 L 16.542969 -1.734375 C 16.542969 -0.714844 15.828125 0 14.910156 0 L 4.800781 0 C 3.878906 0 3.0625 -0.714844 3.0625 -1.734375 L 3.0625 -47.996094 C 3.0625 -49.019531 3.878906 -49.734375 4.800781 -49.734375 L 14.910156 -49.734375 C 15.828125 -49.734375 16.542969 -49.019531 16.542969 -47.996094 L 16.542969 -46.769531 C 18.996094 -47.792969 21.648438 -48.304688 24.40625 -48.304688 C 35.84375 -48.304688 45.546875 -39.113281 45.546875 -27.574219 Z M 45.546875 -1.734375 "/></g></g></g><g fill="#eceff4" fill-opacity="1"><g transform="translate(399.17735, 166.878685)"><g><path d="M 28.898438 -50.753906 C 36.046875 -50.753906 42.585938 -47.894531 47.28125 -43.195312 C 51.980469 -38.5 54.839844 -32.066406 54.839844 -24.917969 C 54.839844 -17.769531 51.980469 -11.234375 47.28125 -6.636719 L 47.28125 -6.535156 C 42.585938 -1.839844 36.046875 1.019531 28.898438 1.019531 C 21.75 1.019531 15.316406 -1.839844 10.621094 -6.535156 C 5.921875 -11.234375 3.0625 -17.769531 3.0625 -24.917969 C 3.0625 -32.066406 5.921875 -38.5 10.621094 -43.195312 C 15.316406 -47.894531 21.855469 -50.753906 28.898438 -50.753906 Z M 37.375 -33.292969 C 35.230469 -35.4375 32.269531 -36.761719 28.898438 -36.761719 C 25.632812 -36.761719 22.671875 -35.4375 20.527344 -33.292969 C 18.382812 -31.148438 17.054688 -28.183594 17.054688 -24.917969 C 17.054688 -21.546875 18.382812 -18.585938 20.527344 -16.441406 C 22.671875 -14.296875 25.632812 -12.96875 28.898438 -12.96875 C 32.269531 -12.96875 35.230469 -14.296875 37.375 -16.441406 C 39.519531 -18.585938 40.847656 -21.546875 40.847656 -24.917969 C 40.847656 -28.183594 39.519531 -31.148438 37.375 -33.292969 Z M 37.375 -33.292969 "/></g></g></g><g fill="#eceff4" fill-opacity="1"><g transform="translate(457.077825, 166.878685)"><g><path d="M 47.996094 -47.484375 L 32.578125 -1.226562 C 32.269531 -0.511719 31.65625 0 30.941406 0 L 20.320312 0 C 19.503906 0 18.890625 -0.511719 18.6875 -1.226562 L 3.164062 -47.484375 C 2.960938 -47.996094 3.0625 -48.507812 3.371094 -49.019531 C 3.777344 -49.425781 4.289062 -49.734375 4.800781 -49.734375 L 15.726562 -49.734375 C 16.542969 -49.734375 17.15625 -49.222656 17.359375 -48.507812 L 25.632812 -24 L 33.800781 -48.507812 C 34.109375 -49.222656 34.722656 -49.734375 35.4375 -49.734375 L 46.363281 -49.734375 C 46.976562 -49.734375 47.484375 -49.425781 47.792969 -49.019531 C 48.097656 -48.507812 48.199219 -47.996094 47.996094 -47.484375 Z M 47.996094 -47.484375 "/></g></g></g><g fill="#eceff4" fill-opacity="1"><g transform="translate(508.238554, 166.878685)"><g><path d="M 28.898438 -50.753906 C 43.195312 -50.753906 54.839844 -39.113281 54.839844 -24.917969 C 54.839844 -23.589844 54.734375 -22.363281 54.53125 -21.140625 C 54.429688 -20.21875 53.613281 -19.605469 52.796875 -19.605469 L 18.28125 -19.605469 C 20.21875 -15.625 24.40625 -12.96875 28.898438 -12.96875 C 31.65625 -12.96875 34.109375 -13.886719 36.152344 -15.421875 C 36.867188 -16.03125 37.785156 -15.929688 38.5 -15.316406 L 45.953125 -7.863281 C 46.261719 -7.453125 46.464844 -7.046875 46.464844 -6.535156 C 46.464844 -6.023438 46.261719 -5.617188 45.851562 -5.308594 C 41.257812 -1.328125 35.332031 1.019531 28.898438 1.019531 C 14.601562 1.019531 3.0625 -10.621094 3.0625 -24.917969 C 3.0625 -39.113281 14.601562 -50.753906 28.898438 -50.753906 Z M 39.519531 -30.125 C 37.582031 -34.210938 33.394531 -36.761719 28.898438 -36.761719 C 24.304688 -36.761719 20.21875 -34.210938 18.28125 -30.125 Z M 39.519531 -30.125 "/></g></g></g><g fill="#eceff4" fill-opacity="1"><g transform="translate(566.13904, 166.878685)"><g><path d="M 25.835938 -35.742188 C 21.140625 -37.171875 16.136719 -33.496094 16.136719 -28.289062 L 16.136719 -1.632812 C 16.136719 -0.816406 15.421875 0 14.5 0 L 4.59375 0 C 3.777344 0 3.0625 -0.816406 3.0625 -1.632812 L 3.0625 -47.894531 C 3.0625 -48.8125 3.777344 -49.628906 4.59375 -49.628906 L 14.5 -49.628906 C 15.421875 -49.628906 16.03125 -48.914062 16.136719 -48.097656 C 20.832031 -49.9375 26.246094 -49.734375 31.351562 -47.691406 C 31.757812 -47.484375 32.066406 -47.179688 32.269531 -46.667969 C 32.371094 -46.363281 32.371094 -45.851562 32.167969 -45.445312 L 27.675781 -36.558594 C 27.367188 -35.84375 26.652344 -35.4375 25.835938 -35.742188 Z M 25.835938 -35.742188 "/></g></g></g><g fill="#eceff4" fill-opacity="1"><g transform="translate(601.573722, 166.878685)"><g><path d="M 26.449219 -35.230469 C 23.792969 -38.5 19.097656 -37.476562 18.789062 -34.722656 C 18.585938 -31.351562 38.089844 -30.226562 38.5 -15.113281 C 38.90625 2.65625 13.785156 5.414062 3.164062 -7.148438 C 2.859375 -7.453125 2.757812 -7.964844 2.859375 -8.476562 C 2.859375 -8.988281 3.164062 -9.394531 3.574219 -9.597656 L 12.253906 -15.625 C 12.867188 -16.136719 13.785156 -16.136719 14.296875 -15.523438 C 18.175781 -10.925781 24.816406 -12.152344 24.714844 -14.808594 C 25.019531 -18.382812 3.777344 -19.402344 5.105469 -35.84375 C 6.332031 -51.773438 27.675781 -54.429688 37.273438 -43.910156 C 37.582031 -43.605469 37.683594 -43.09375 37.683594 -42.585938 C 37.582031 -42.074219 37.375 -41.664062 36.96875 -41.359375 L 28.390625 -35.230469 C 27.777344 -34.824219 26.859375 -34.617188 26.449219 -35.230469 Z M 26.449219 -35.230469 "/></g></g></g><g fill="#eceff4" fill-opacity="1"><g transform="translate(642.624844, 166.878685)"><g><path d="M 28.898438 -50.753906 C 43.195312 -50.753906 54.839844 -39.113281 54.839844 -24.917969 C 54.839844 -23.589844 54.734375 -22.363281 54.53125 -21.140625 C 54.429688 -20.21875 53.613281 -19.605469 52.796875 -19.605469 L 18.28125 -19.605469 C 20.21875 -15.625 24.40625 -12.96875 28.898438 -12.96875 C 31.65625 -12.96875 34.109375 -13.886719 36.152344 -15.421875 C 36.867188 -16.03125 37.785156 -15.929688 38.5 -15.316406 L 45.953125 -7.863281 C 46.261719 -7.453125 46.464844 -7.046875 46.464844 -6.535156 C 46.464844 -6.023438 46.261719 -5.617188 45.851562 -5.308594 C 41.257812 -1.328125 35.332031 1.019531 28.898438 1.019531 C 14.601562 1.019531 3.0625 -10.621094 3.0625 -24.917969 C 3.0625 -39.113281 14.601562 -50.753906 28.898438 -50.753906 Z M 39.519531 -30.125 C 37.582031 -34.210938 33.394531 -36.761719 28.898438 -36.761719 C 24.304688 -36.761719 20.21875 -34.210938 18.28125 -30.125 Z M 39.519531 -30.125 "/></g></g></g><g fill="#eceff4" fill-opacity="1"><g transform="translate(301.094989, 262.458424)"><g><path d="M 53.769531 0 L 57.839844 0 C 58.21875 0 58.59375 -0.152344 58.820312 -0.453125 C 59.125 -0.753906 59.199219 -1.132812 59.199219 -1.507812 L 52.5625 -51.507812 C 52.488281 -52.183594 51.882812 -52.636719 51.28125 -52.636719 L 45.472656 -52.789062 C 44.871094 -52.789062 44.34375 -52.410156 44.117188 -51.808594 L 32.578125 -15.460938 L 30.691406 -9.578125 L 28.882812 -15.460938 L 17.34375 -51.808594 C 17.117188 -52.410156 16.589844 -52.789062 15.988281 -52.789062 L 10.179688 -52.636719 C 9.578125 -52.636719 8.972656 -52.183594 8.898438 -51.507812 L 2.261719 -1.507812 C 2.261719 -1.132812 2.335938 -0.753906 2.640625 -0.453125 C 2.867188 -0.152344 3.242188 0 3.621094 0 L 7.691406 0 C 8.371094 0 8.898438 -0.527344 8.972656 -1.207031 L 14.101562 -39.667969 L 26.394531 -0.90625 C 26.621094 -0.378906 27.074219 0 27.675781 0 L 33.785156 0 C 34.386719 0 34.839844 -0.378906 35.066406 -0.90625 L 47.359375 -39.667969 L 52.488281 -1.207031 C 52.5625 -0.527344 53.089844 0 53.769531 0 Z M 53.769531 0 "/></g></g></g><g fill="#eceff4" fill-opacity="1"><g transform="translate(362.554245, 262.458424)"><g><path d="M 6.9375 -29.789062 C 3.921875 -26.546875 2.261719 -22.246094 2.261719 -17.796875 C 2.261719 -13.046875 4.074219 -8.523438 7.390625 -5.203125 L 7.464844 -5.203125 C 10.785156 -1.886719 15.234375 0 19.984375 0 C 22.851562 0 25.566406 -0.679688 28.128906 -1.960938 L 31.070312 -3.46875 L 31.070312 -1.359375 C 31.070312 -0.601562 31.671875 0 32.351562 0 L 36.425781 0 C 37.101562 0 37.707031 -0.601562 37.707031 -1.359375 L 37.707031 -34.160156 C 37.707031 -34.914062 37.101562 -35.519531 36.425781 -35.519531 L 32.351562 -35.519531 C 31.671875 -35.519531 31.070312 -34.914062 31.070312 -34.160156 L 31.070312 -32.050781 L 28.128906 -33.558594 C 25.566406 -34.839844 22.851562 -35.519531 19.984375 -35.519531 C 15.234375 -35.519531 10.785156 -33.632812 7.464844 -30.316406 Z M 28.429688 -10.558594 L 28.429688 -10.480469 L 27.828125 -9.878906 C 25.714844 -7.84375 22.925781 -6.710938 19.984375 -6.710938 C 17.042969 -6.710938 14.253906 -7.84375 12.140625 -9.953125 C 10.105469 -11.992188 8.898438 -14.78125 8.898438 -17.796875 C 8.898438 -20.738281 10.105469 -23.527344 12.140625 -25.566406 C 14.253906 -27.675781 17.042969 -28.808594 19.984375 -28.808594 C 22.925781 -28.808594 25.714844 -27.675781 27.828125 -25.566406 C 29.863281 -23.527344 30.996094 -20.8125 31.070312 -17.949219 L 31.070312 -17.570312 C 30.996094 -14.933594 30.089844 -12.519531 28.429688 -10.558594 Z M 28.429688 -10.558594 "/></g></g></g><g fill="#eceff4" fill-opacity="1"><g transform="translate(402.747838, 262.458424)"><g><path d="M 7.992188 -4.675781 C 11.3125 -1.660156 15.535156 0 20.058594 0 C 22.851562 0 25.640625 -0.679688 28.203125 -1.960938 L 31.070312 -3.46875 L 31.070312 -1.359375 C 31.070312 -0.601562 31.671875 0 32.425781 0 L 36.425781 0 C 37.179688 0 37.78125 -0.601562 37.78125 -1.359375 L 37.78125 -51.429688 C 37.78125 -52.183594 37.179688 -52.789062 36.425781 -52.789062 L 32.425781 -52.789062 C 31.671875 -52.789062 31.070312 -52.183594 31.070312 -51.429688 L 31.070312 -31.976562 L 28.203125 -33.558594 C 25.640625 -34.839844 22.851562 -35.519531 20.058594 -35.519531 C 15.308594 -35.519531 10.859375 -33.632812 7.464844 -30.316406 C 4.148438 -26.996094 2.261719 -22.472656 2.261719 -17.722656 C 2.261719 -13.046875 4.148438 -8.523438 7.464844 -5.203125 Z M 31.070312 -18.023438 L 31.070312 -17.496094 C 30.996094 -14.628906 29.863281 -11.914062 27.828125 -9.953125 C 25.792969 -7.84375 23 -6.710938 20.058594 -6.710938 C 17.117188 -6.710938 14.328125 -7.84375 12.21875 -9.953125 C 10.105469 -11.992188 8.972656 -14.78125 8.972656 -17.722656 C 8.972656 -20.664062 10.105469 -23.527344 12.21875 -25.566406 C 14.328125 -27.675781 17.117188 -28.808594 20.058594 -28.808594 C 23 -28.808594 25.792969 -27.675781 27.902344 -25.566406 C 29.863281 -23.605469 30.996094 -20.890625 31.070312 -18.023438 Z M 31.070312 -18.023438 "/></g></g></g><g fill="#eceff4" fill-opacity="1"><g transform="translate(442.79061, 262.458424)"><g><path d="M 6.9375 -29.789062 C 3.921875 -26.546875 2.261719 -22.246094 2.261719 -17.796875 C 2.261719 -13.046875 4.074219 -8.523438 7.390625 -5.203125 L 7.464844 -5.203125 C 10.785156 -1.886719 15.234375 0 19.984375 0 C 22.851562 0 25.566406 -0.679688 28.128906 -1.960938 L 31.070312 -3.46875 L 31.070312 -1.359375 C 31.070312 -0.601562 31.671875 0 32.351562 0 L 36.425781 0 C 37.101562 0 37.707031 -0.601562 37.707031 -1.359375 L 37.707031 -34.160156 C 37.707031 -34.914062 37.101562 -35.519531 36.425781 -35.519531 L 32.351562 -35.519531 C 31.671875 -35.519531 31.070312 -34.914062 31.070312 -34.160156 L 31.070312 -32.050781 L 28.128906 -33.558594 C 25.566406 -34.839844 22.851562 -35.519531 19.984375 -35.519531 C 15.234375 -35.519531 10.785156 -33.632812 7.464844 -30.316406 Z M 28.429688 -10.558594 L 28.429688 -10.480469 L 27.828125 -9.878906 C 25.714844 -7.84375 22.925781 -6.710938 19.984375 -6.710938 C 17.042969 -6.710938 14.253906 -7.84375 12.140625 -9.953125 C 10.105469 -11.992188 8.898438 -14.78125 8.898438 -17.796875 C 8.898438 -20.738281 10.105469 -23.527344 12.140625 -25.566406 C 14.253906 -27.675781 17.042969 -28.808594 19.984375 -28.808594 C 22.925781 -28.808594 25.714844 -27.675781 27.828125 -25.566406 C 29.863281 -23.527344 30.996094 -20.8125 31.070312 -17.949219 L 31.070312 -17.570312 C 30.996094 -14.933594 30.089844 -12.519531 28.429688 -10.558594 Z M 28.429688 -10.558594 "/></g></g></g><g fill="#eceff4" fill-opacity="1"><g transform="translate(482.984203, 262.458424)"><g><path d="M 31.976562 -1.359375 L 31.976562 -19.832031 C 31.976562 -27.976562 25.113281 -34.386719 17.117188 -34.386719 C 15.234375 -34.386719 13.421875 -34.011719 11.6875 -33.332031 L 8.898438 -32.277344 L 8.898438 -34.160156 C 8.898438 -34.914062 8.371094 -35.519531 7.617188 -35.519531 L 3.542969 -35.519531 C 2.867188 -35.519531 2.261719 -34.914062 2.261719 -34.160156 L 2.261719 -1.359375 C 2.261719 -0.601562 2.867188 0 3.542969 0 L 7.617188 0 C 8.371094 0 8.898438 -0.601562 8.898438 -1.359375 L 8.898438 -19.910156 C 8.972656 -24.359375 12.820312 -27.675781 17.117188 -27.675781 C 21.492188 -27.675781 25.261719 -24.28125 25.261719 -19.832031 L 25.261719 -1.359375 C 25.261719 -0.601562 25.867188 0 26.621094 0 L 30.691406 0 C 31.371094 0 31.976562 -0.601562 31.976562 -1.359375 Z M 31.976562 -1.359375 "/></g></g></g><g fill="#eceff4" fill-opacity="1"><g transform="translate(517.220403, 262.458424)"><g><path d="M 6.9375 -29.789062 C 3.921875 -26.546875 2.261719 -22.246094 2.261719 -17.796875 C 2.261719 -13.046875 4.074219 -8.523438 7.390625 -5.203125 C 10.785156 -1.886719 15.234375 0 19.984375 0 C 24.433594 0 28.730469 -1.660156 32.050781 -4.675781 L 32.503906 -5.203125 C 35.894531 -8.597656 37.707031 -13.046875 37.707031 -17.796875 C 37.707031 -22.472656 35.894531 -26.996094 32.503906 -30.316406 C 29.183594 -33.632812 24.734375 -35.519531 19.984375 -35.519531 C 15.234375 -35.519531 10.785156 -33.632812 7.464844 -30.316406 Z M 27.828125 -25.566406 C 29.863281 -23.527344 31.070312 -20.664062 31.070312 -17.796875 C 31.070312 -14.78125 29.863281 -11.992188 27.828125 -9.953125 C 25.714844 -7.84375 22.925781 -6.710938 19.984375 -6.710938 C 17.042969 -6.710938 14.253906 -7.84375 12.140625 -9.953125 C 10.105469 -11.992188 8.898438 -14.78125 8.898438 -17.796875 C 8.898438 -20.664062 10.105469 -23.527344 12.140625 -25.566406 C 14.253906 -27.675781 17.042969 -28.808594 19.984375 -28.808594 C 22.925781 -28.808594 25.714844 -27.675781 27.828125 -25.566406 Z M 27.828125 -25.566406 "/></g></g></g><g fill="#eceff4" fill-opacity="1"><g transform="translate(557.187769, 262.458424)"><g><path d="M 7.84375 -35.445312 L 3.621094 -35.445312 C 3.167969 -35.445312 2.789062 -35.292969 2.5625 -34.914062 C 2.261719 -34.539062 2.1875 -34.160156 2.335938 -33.710938 L 13.046875 -0.90625 C 13.195312 -0.378906 13.726562 0 14.328125 0 L 19.605469 0 C 20.210938 0 20.738281 -0.378906 20.890625 -0.90625 L 26.546875 -17.722656 L 32.125 -0.90625 C 32.351562 -0.378906 32.804688 0 33.40625 0 L 38.761719 0 C 39.367188 0 39.816406 -0.378906 40.042969 -0.90625 L 50.675781 -33.710938 C 50.828125 -34.160156 50.753906 -34.539062 50.527344 -34.914062 C 50.226562 -35.292969 49.847656 -35.445312 49.394531 -35.445312 L 45.171875 -35.445312 C 44.644531 -35.445312 44.117188 -35.140625 43.890625 -34.539062 L 36.121094 -10.257812 L 29.109375 -31.222656 C 28.882812 -31.75 28.355469 -32.125 27.828125 -32.125 L 25.261719 -32.125 C 24.660156 -32.125 24.207031 -31.75 23.980469 -31.222656 L 16.96875 -10.257812 L 9.125 -34.539062 C 8.972656 -35.140625 8.445312 -35.445312 7.84375 -35.445312 Z M 7.84375 -35.445312 "/></g></g></g><g fill="#eceff4" fill-opacity="1"><g transform="translate(610.201079, 262.458424)"><g><path d="M 6.410156 -52.789062 C 4.523438 -52.789062 3.015625 -51.28125 3.015625 -49.46875 C 3.015625 -47.585938 4.523438 -46.078125 6.410156 -46.078125 C 8.21875 -46.078125 9.726562 -47.585938 9.726562 -49.46875 C 9.726562 -51.28125 8.21875 -52.789062 6.410156 -52.789062 Z M 3.015625 -34.238281 L 3.015625 -1.359375 C 3.015625 -0.601562 3.621094 0 4.375 0 L 8.371094 0 C 9.125 0 9.726562 -0.601562 9.726562 -1.359375 L 9.726562 -34.238281 C 9.726562 -34.992188 9.125 -35.59375 8.371094 -35.59375 L 4.375 -35.59375 C 3.621094 -35.59375 3.015625 -34.992188 3.015625 -34.238281 Z M 3.015625 -34.238281 "/></g></g></g><g fill="#eceff4" fill-opacity="1"><g transform="translate(622.945402, 262.458424)"><g><path d="M 26.996094 -27.601562 L 29.9375 -30.542969 C 30.242188 -30.84375 30.390625 -31.222656 30.316406 -31.597656 C 30.316406 -32.050781 30.089844 -32.351562 29.710938 -32.578125 C 26.847656 -34.464844 23.453125 -35.519531 19.984375 -35.519531 C 10.179688 -35.519531 2.261719 -27.527344 2.261719 -17.722656 C 2.261719 -7.917969 10.179688 0 19.984375 0 C 23.453125 0 26.847656 -0.980469 29.710938 -2.941406 C 30.089844 -3.167969 30.316406 -3.46875 30.316406 -3.921875 C 30.390625 -4.296875 30.242188 -4.675781 29.9375 -4.976562 L 26.996094 -7.917969 C 26.621094 -8.296875 25.941406 -8.371094 25.414062 -8.144531 C 23.753906 -7.164062 21.945312 -6.710938 19.984375 -6.710938 C 5.503906 -6.710938 5.355469 -28.808594 19.984375 -28.808594 C 21.945312 -28.808594 23.753906 -28.355469 25.414062 -27.375 C 25.941406 -27.074219 26.621094 -27.148438 26.996094 -27.601562 Z M 26.996094 -27.601562 "/></g></g></g><g fill="#eceff4" fill-opacity="1"><g transform="translate(655.522564, 262.458424)"><g><path d="M 3.621094 -28.808594 L 18.324219 -28.808594 L 3.847656 -1.960938 C 3.621094 -1.507812 3.621094 -1.054688 3.847656 -0.679688 C 4.148438 -0.226562 4.523438 0 5.050781 0 L 28.730469 0 C 29.410156 0 30.015625 -0.601562 30.015625 -1.359375 L 30.015625 -5.355469 C 30.015625 -6.109375 29.410156 -6.710938 28.730469 -6.710938 L 13.953125 -6.710938 L 28.429688 -33.558594 C 28.65625 -33.9375 28.65625 -34.464844 28.429688 -34.839844 C 28.128906 -35.292969 27.75 -35.519531 27.300781 -35.519531 L 3.621094 -35.519531 C 2.867188 -35.519531 2.261719 -34.914062 2.261719 -34.160156 L 2.261719 -30.164062 C 2.261719 -29.410156 2.867188 -28.808594 3.621094 -28.808594 Z M 3.621094 -28.808594 "/></g></g></g></svg>