<svg xmlns="http://www.w3.org/2000/svg" xmlns:xlink="http://www.w3.org/1999/xlink" width="750" zoomAndPan="magnify" viewBox="0 0 562.5 187.499995" height="250" preserveAspectRatio="xMidYMid meet" version="1.0"><defs><g/><clipPath id="051e7ffa2d"><path d="M 28 18.714844 L 157 18.714844 L 157 168.449219 L 28 168.449219 Z M 28 18.714844 " clip-rule="nonzero"/></clipPath></defs><g clip-path="url(#051e7ffa2d)"><path fill="#9d9d9d" d="M 90.074219 18.699219 C 88.929688 18.660156 86.742188 19.9375 85.214844 21.542969 C 83.6875 23.144531 77.75 27.671875 72.023438 31.601562 C 66.296875 35.527344 56.925781 40.769531 51.195312 43.25 C 45.46875 45.730469 38.128906 48.089844 34.882812 48.488281 C 31.636719 48.890625 28.980469 49.84375 28.980469 50.605469 C 28.980469 51.367188 30.074219 51.980469 31.410156 51.96875 C 32.746094 51.953125 37.902344 51.105469 42.867188 50.078125 C 47.832031 49.054688 56.890625 45.632812 63 42.476562 C 69.109375 39.320312 77.855469 33.960938 82.4375 30.574219 L 90.769531 24.410156 L 97.15625 30.230469 C 100.671875 33.429688 107.542969 38.386719 112.429688 41.246094 C 117.316406 44.105469 127.714844 48.472656 135.535156 50.953125 L 149.753906 55.457031 L 149.769531 60.308594 C 149.78125 62.976562 149.097656 72.023438 148.253906 80.414062 C 147.40625 88.800781 145.175781 100.964844 143.289062 107.449219 C 141.402344 113.929688 137.875 122.945312 135.445312 127.480469 C 133.019531 132.015625 127.910156 139.136719 124.089844 143.308594 C 120.273438 147.480469 114.023438 152.910156 110.207031 155.371094 C 106.386719 157.828125 99.984375 161.15625 95.972656 162.761719 L 88.683594 165.679688 L 82.785156 162.738281 C 79.539062 161.121094 74.226562 157.691406 70.984375 155.113281 C 67.738281 152.535156 64.613281 150.789062 64.039062 151.226562 C 63.46875 151.667969 65.1875 153.886719 67.859375 156.160156 C 70.53125 158.429688 75.21875 162.144531 78.273438 164.410156 C 82.425781 167.492188 85.3125 168.519531 89.726562 168.492188 C 93.957031 168.460938 99.265625 166.605469 108.46875 161.933594 C 117.742188 157.230469 123.726562 152.988281 129.992188 146.683594 C 136.21875 140.414062 140.210938 134.71875 144.132812 126.511719 C 147.136719 120.21875 150.546875 111.328125 151.714844 106.753906 C 152.882812 102.179688 154.523438 92.507812 155.363281 85.265625 C 156.207031 78.019531 156.699219 66.855469 156.460938 60.457031 C 156.136719 51.796875 155.492188 48.558594 153.941406 47.8125 C 152.796875 47.261719 147.484375 45.777344 142.140625 44.515625 C 136.796875 43.253906 127.734375 39.996094 122.007812 37.277344 C 116.28125 34.558594 107.222656 29.28125 101.875 25.550781 C 96.53125 21.820312 91.21875 18.738281 90.074219 18.699219 Z M 90.074219 18.699219 " fill-opacity="1" fill-rule="nonzero"/></g><path fill="#9d9d9d" d="M 57.445312 63.082031 L 42.867188 63.082031 L 41.476562 66.546875 C 40.714844 68.453125 40.109375 71.730469 40.128906 73.828125 L 40.171875 77.640625 L 44.296875 73.132812 C 47.921875 69.171875 49.175781 68.671875 54.664062 68.976562 L 60.90625 69.320312 L 50.496094 84.226562 C 44.773438 92.421875 40.089844 100.378906 40.089844 101.902344 L 40.089844 104.675781 L 70.636719 104.675781 L 72.371094 99.167969 C 73.324219 96.140625 73.632812 93.175781 73.050781 92.582031 C 72.46875 91.988281 70.28125 93.234375 68.191406 95.347656 C 64.871094 98.703125 63.476562 99.144531 57.21875 98.8125 L 50.046875 98.4375 L 60.960938 83.1875 C 66.960938 74.796875 71.90625 66.84375 71.945312 65.507812 C 72.015625 63.347656 70.433594 63.082031 57.445312 63.082031 Z M 57.445312 63.082031 " fill-opacity="1" fill-rule="nonzero"/><path fill="#9d9d9d" d="M 123.394531 63.082031 L 105.347656 63.082031 L 103.957031 66.546875 C 103.195312 68.453125 102.570312 70.949219 102.570312 72.09375 C 102.570312 73.238281 103.039062 74.195312 103.609375 74.21875 C 104.183594 74.242188 105.902344 72.976562 107.429688 71.402344 C 108.957031 69.828125 111.925781 68.558594 114.023438 68.582031 L 117.84375 68.628906 L 117.148438 99.824219 L 114.023438 100.167969 C 112.304688 100.359375 110.902344 101.453125 110.902344 102.59375 C 110.902344 104.269531 113.058594 104.675781 122.007812 104.675781 C 130.957031 104.675781 133.117188 104.269531 133.117188 102.59375 C 133.117188 101.453125 131.554688 100.203125 129.644531 99.824219 L 126.171875 99.128906 L 126.171875 68.628906 L 131.03125 68.628906 C 134.390625 68.628906 136.429688 69.484375 137.628906 71.40625 C 138.582031 72.933594 140.144531 74.179688 141.097656 74.179688 C 142.054688 74.175781 142.828125 73.082031 142.816406 71.746094 C 142.804688 70.414062 142.492188 67.917969 142.121094 66.203125 L 141.445312 63.082031 Z M 123.394531 63.082031 " fill-opacity="1" fill-rule="nonzero"/><path fill="#9d9d9d" d="M 94.933594 84.394531 C 91.878906 84.085938 87.503906 84.664062 85.214844 85.675781 C 82.921875 86.691406 79.949219 89.039062 78.609375 90.898438 C 77.265625 92.757812 76.167969 96.148438 76.167969 98.4375 C 76.167969 100.722656 77.265625 104.125 78.609375 106 C 79.949219 107.871094 84.796875 111.082031 89.378906 113.132812 C 93.960938 115.183594 98.960938 118.210938 100.488281 119.855469 C 102.765625 122.308594 103.011719 123.515625 101.851562 126.585938 C 100.820312 129.304688 99.308594 130.445312 96.296875 130.765625 C 94.019531 131.007812 90.75 130.851562 89.03125 130.417969 C 87.3125 129.984375 84.660156 127.445312 83.132812 124.777344 C 81.414062 121.773438 79.296875 119.925781 77.578125 119.925781 C 75.632812 119.925781 74.976562 120.652344 75.390625 122.351562 C 75.714844 123.6875 76.339844 126.804688 76.78125 129.285156 C 77.414062 132.855469 78.511719 134.082031 82.089844 135.199219 C 84.570312 135.976562 89.414062 136.597656 92.851562 136.582031 C 96.621094 136.5625 100.890625 135.453125 103.609375 133.785156 C 106.09375 132.261719 108.75 129.457031 109.511719 127.550781 C 110.277344 125.644531 110.921875 122.371094 110.949219 120.273438 C 110.976562 118.175781 109.570312 114.625 107.824219 112.386719 C 106.023438 110.074219 100.296875 106.324219 94.585938 103.722656 C 86.460938 100.015625 84.515625 98.527344 84.496094 96.011719 C 84.484375 94.292969 85.265625 92.101562 86.230469 91.132812 C 87.199219 90.167969 89.710938 89.390625 91.808594 89.402344 C 93.910156 89.414062 96.722656 89.964844 98.058594 90.628906 C 99.394531 91.289062 101.425781 93.808594 102.570312 96.226562 C 103.714844 98.648438 105.433594 100.601562 106.386719 100.570312 C 107.511719 100.535156 108.125 98.316406 108.125 94.277344 C 108.125 88.769531 107.675781 87.855469 104.304688 86.496094 C 102.207031 85.644531 97.988281 84.699219 94.933594 84.394531 Z M 94.933594 84.394531 " fill-opacity="1" fill-rule="nonzero"/><g fill="#9d9d9d" fill-opacity="1"><g transform="translate(177.202923, 86.696012)"><g><path d="M 14.953125 0 L 0.640625 0 L 0.640625 -2.640625 L 9.859375 -15.859375 L 0.890625 -15.859375 L 0.890625 -19.234375 L 14.703125 -19.234375 L 14.703125 -16.59375 L 5.5 -3.375 L 14.953125 -3.375 Z M 14.953125 0 "/></g></g></g><g fill="#9d9d9d" fill-opacity="1"><g transform="translate(192.804167, 86.696012)"><g><path d="M 8.1875 -12.125 C 7.34375 -12.125 6.675781 -11.851562 6.1875 -11.3125 C 5.707031 -10.78125 5.429688 -10.015625 5.359375 -9.015625 L 11 -9.015625 C 10.976562 -10.015625 10.71875 -10.78125 10.21875 -11.3125 C 9.71875 -11.851562 9.039062 -12.125 8.1875 -12.125 Z M 8.765625 0.265625 C 6.390625 0.265625 4.535156 -0.382812 3.203125 -1.6875 C 1.867188 -3 1.203125 -4.851562 1.203125 -7.25 C 1.203125 -9.707031 1.816406 -11.609375 3.046875 -12.953125 C 4.285156 -14.304688 5.992188 -14.984375 8.171875 -14.984375 C 10.242188 -14.984375 11.859375 -14.390625 13.015625 -13.203125 C 14.171875 -12.023438 14.75 -10.390625 14.75 -8.296875 L 14.75 -6.359375 L 5.28125 -6.359375 C 5.320312 -5.210938 5.65625 -4.316406 6.28125 -3.671875 C 6.914062 -3.035156 7.800781 -2.71875 8.9375 -2.71875 C 9.820312 -2.71875 10.660156 -2.8125 11.453125 -3 C 12.242188 -3.1875 13.066406 -3.476562 13.921875 -3.875 L 13.921875 -0.78125 C 13.222656 -0.425781 12.472656 -0.164062 11.671875 0 C 10.878906 0.175781 9.910156 0.265625 8.765625 0.265625 Z M 8.765625 0.265625 "/></g></g></g><g fill="#9d9d9d" fill-opacity="1"><g transform="translate(208.72112, 86.696012)"><g><path d="M 12.359375 -4.359375 C 12.359375 -2.859375 11.832031 -1.710938 10.78125 -0.921875 C 9.738281 -0.128906 8.175781 0.265625 6.09375 0.265625 C 5.019531 0.265625 4.101562 0.191406 3.34375 0.046875 C 2.59375 -0.0976562 1.890625 -0.3125 1.234375 -0.59375 L 1.234375 -3.90625 C 1.984375 -3.550781 2.820312 -3.253906 3.75 -3.015625 C 4.6875 -2.785156 5.507812 -2.671875 6.21875 -2.671875 C 7.675781 -2.671875 8.40625 -3.09375 8.40625 -3.9375 C 8.40625 -4.25 8.304688 -4.503906 8.109375 -4.703125 C 7.921875 -4.898438 7.585938 -5.125 7.109375 -5.375 C 6.640625 -5.625 6.007812 -5.914062 5.21875 -6.25 C 4.09375 -6.71875 3.265625 -7.15625 2.734375 -7.5625 C 2.203125 -7.96875 1.8125 -8.429688 1.5625 -8.953125 C 1.320312 -9.472656 1.203125 -10.113281 1.203125 -10.875 C 1.203125 -12.1875 1.707031 -13.195312 2.71875 -13.90625 C 3.738281 -14.625 5.175781 -14.984375 7.03125 -14.984375 C 8.800781 -14.984375 10.523438 -14.597656 12.203125 -13.828125 L 11 -10.9375 C 10.257812 -11.25 9.566406 -11.503906 8.921875 -11.703125 C 8.285156 -11.910156 7.632812 -12.015625 6.96875 -12.015625 C 5.789062 -12.015625 5.203125 -11.691406 5.203125 -11.046875 C 5.203125 -10.691406 5.390625 -10.378906 5.765625 -10.109375 C 6.148438 -9.847656 6.984375 -9.457031 8.265625 -8.9375 C 9.421875 -8.476562 10.265625 -8.046875 10.796875 -7.640625 C 11.328125 -7.234375 11.71875 -6.765625 11.96875 -6.234375 C 12.226562 -5.710938 12.359375 -5.085938 12.359375 -4.359375 Z M 12.359375 -4.359375 "/></g></g></g><g fill="#9d9d9d" fill-opacity="1"><g transform="translate(222.112407, 86.696012)"><g><path d="M 10.1875 0.265625 C 8.457031 0.265625 7.097656 -0.363281 6.109375 -1.625 L 5.90625 -1.625 C 6.039062 -0.394531 6.109375 0.316406 6.109375 0.515625 L 6.109375 6.46875 L 2.109375 6.46875 L 2.109375 -14.703125 L 5.359375 -14.703125 L 5.9375 -12.796875 L 6.109375 -12.796875 C 7.054688 -14.253906 8.445312 -14.984375 10.28125 -14.984375 C 12.019531 -14.984375 13.378906 -14.3125 14.359375 -12.96875 C 15.347656 -11.625 15.84375 -9.757812 15.84375 -7.375 C 15.84375 -5.8125 15.609375 -4.445312 15.140625 -3.28125 C 14.679688 -2.125 14.023438 -1.242188 13.171875 -0.640625 C 12.328125 -0.0351562 11.332031 0.265625 10.1875 0.265625 Z M 9 -11.765625 C 8.007812 -11.765625 7.285156 -11.457031 6.828125 -10.84375 C 6.367188 -10.238281 6.128906 -9.238281 6.109375 -7.84375 L 6.109375 -7.40625 C 6.109375 -5.820312 6.34375 -4.6875 6.8125 -4 C 7.289062 -3.320312 8.035156 -2.984375 9.046875 -2.984375 C 10.847656 -2.984375 11.75 -4.46875 11.75 -7.4375 C 11.75 -8.882812 11.523438 -9.96875 11.078125 -10.6875 C 10.640625 -11.40625 9.945312 -11.765625 9 -11.765625 Z M 9 -11.765625 "/></g></g></g><g fill="#9d9d9d" fill-opacity="1"><g transform="translate(239.160646, 86.696012)"><g><path d="M 5.296875 -7.375 C 5.296875 -5.925781 5.535156 -4.828125 6.015625 -4.078125 C 6.492188 -3.328125 7.273438 -2.953125 8.359375 -2.953125 C 9.421875 -2.953125 10.1875 -3.320312 10.65625 -4.0625 C 11.125 -4.8125 11.359375 -5.914062 11.359375 -7.375 C 11.359375 -8.832031 11.117188 -9.925781 10.640625 -10.65625 C 10.171875 -11.382812 9.398438 -11.75 8.328125 -11.75 C 7.253906 -11.75 6.476562 -11.382812 6 -10.65625 C 5.53125 -9.9375 5.296875 -8.84375 5.296875 -7.375 Z M 15.46875 -7.375 C 15.46875 -4.976562 14.835938 -3.101562 13.578125 -1.75 C 12.316406 -0.40625 10.554688 0.265625 8.296875 0.265625 C 6.890625 0.265625 5.644531 -0.0390625 4.5625 -0.65625 C 3.488281 -1.28125 2.660156 -2.171875 2.078125 -3.328125 C 1.492188 -4.484375 1.203125 -5.832031 1.203125 -7.375 C 1.203125 -9.78125 1.828125 -11.648438 3.078125 -12.984375 C 4.335938 -14.316406 6.101562 -14.984375 8.375 -14.984375 C 9.789062 -14.984375 11.035156 -14.675781 12.109375 -14.0625 C 13.191406 -13.445312 14.019531 -12.5625 14.59375 -11.40625 C 15.175781 -10.257812 15.46875 -8.914062 15.46875 -7.375 Z M 6.140625 -16.328125 L 6.140625 -16.671875 C 7.648438 -18.429688 8.679688 -19.753906 9.234375 -20.640625 L 13.734375 -20.640625 L 13.734375 -20.359375 C 13.273438 -19.898438 12.492188 -19.222656 11.390625 -18.328125 C 10.296875 -17.429688 9.4375 -16.765625 8.8125 -16.328125 Z M 6.140625 -16.328125 "/></g></g></g><g fill="#9d9d9d" fill-opacity="1"><g transform="translate(255.840559, 86.696012)"><g><path d="M 6.4375 -12.234375 L 7.359375 -12.796875 L 8.890625 -10.203125 L 6.4375 -8.734375 L 6.4375 0 L 2.421875 0 L 2.421875 -6.28125 L 1.484375 -5.703125 L 0 -8.296875 L 2.421875 -9.765625 L 2.421875 -20.46875 L 6.4375 -20.46875 Z M 6.4375 -12.234375 "/></g></g></g><g fill="#9d9d9d" fill-opacity="1"><g transform="translate(264.733005, 86.696012)"><g/></g></g><g fill="#9d9d9d" fill-opacity="1"><g transform="translate(271.731202, 86.696012)"><g><path d="M 13.765625 -5.34375 C 13.765625 -3.601562 13.140625 -2.234375 11.890625 -1.234375 C 10.640625 -0.234375 8.90625 0.265625 6.6875 0.265625 C 4.632812 0.265625 2.816406 -0.117188 1.234375 -0.890625 L 1.234375 -4.6875 C 2.535156 -4.101562 3.632812 -3.691406 4.53125 -3.453125 C 5.425781 -3.222656 6.25 -3.109375 7 -3.109375 C 7.894531 -3.109375 8.578125 -3.273438 9.046875 -3.609375 C 9.523438 -3.953125 9.765625 -4.460938 9.765625 -5.140625 C 9.765625 -5.515625 9.660156 -5.847656 9.453125 -6.140625 C 9.242188 -6.441406 8.9375 -6.726562 8.53125 -7 C 8.125 -7.269531 7.289062 -7.703125 6.03125 -8.296875 C 4.863281 -8.847656 3.984375 -9.378906 3.390625 -9.890625 C 2.804688 -10.398438 2.335938 -10.988281 1.984375 -11.65625 C 1.628906 -12.332031 1.453125 -13.125 1.453125 -14.03125 C 1.453125 -15.738281 2.03125 -17.078125 3.1875 -18.046875 C 4.34375 -19.015625 5.9375 -19.5 7.96875 -19.5 C 8.96875 -19.5 9.921875 -19.378906 10.828125 -19.140625 C 11.734375 -18.910156 12.679688 -18.582031 13.671875 -18.15625 L 12.359375 -14.984375 C 11.335938 -15.398438 10.488281 -15.691406 9.8125 -15.859375 C 9.144531 -16.023438 8.488281 -16.109375 7.84375 -16.109375 C 7.070312 -16.109375 6.476562 -15.925781 6.0625 -15.5625 C 5.65625 -15.207031 5.453125 -14.742188 5.453125 -14.171875 C 5.453125 -13.804688 5.53125 -13.488281 5.6875 -13.21875 C 5.851562 -12.957031 6.117188 -12.703125 6.484375 -12.453125 C 6.847656 -12.203125 7.710938 -11.75 9.078125 -11.09375 C 10.867188 -10.238281 12.097656 -9.378906 12.765625 -8.515625 C 13.429688 -7.648438 13.765625 -6.59375 13.765625 -5.34375 Z M 13.765625 -5.34375 "/></g></g></g><g fill="#9d9d9d" fill-opacity="1"><g transform="translate(286.569485, 86.696012)"><g><path d="M 12.34375 0 L 0.71875 0 L 0.71875 -2.375 L 7.53125 -11.640625 L 1.125 -11.640625 L 1.125 -14.703125 L 12.09375 -14.703125 L 12.09375 -12.09375 L 5.46875 -3.0625 L 12.34375 -3.0625 Z M 12.34375 0 "/></g></g></g><g fill="#9d9d9d" fill-opacity="1"><g transform="translate(299.710842, 86.696012)"><g><path d="M 5.953125 -8 L 7.703125 -10.234375 L 11.828125 -14.703125 L 16.34375 -14.703125 L 10.515625 -8.328125 L 16.703125 0 L 12.078125 0 L 7.84375 -5.953125 L 6.109375 -4.578125 L 6.109375 0 L 2.109375 0 L 2.109375 -20.46875 L 6.109375 -20.46875 L 6.109375 -11.34375 L 5.90625 -8 Z M 5.953125 -8 "/></g></g></g><g fill="#9d9d9d" fill-opacity="1"><g transform="translate(316.417064, 86.696012)"><g><path d="M 5.296875 -7.375 C 5.296875 -5.925781 5.535156 -4.828125 6.015625 -4.078125 C 6.492188 -3.328125 7.273438 -2.953125 8.359375 -2.953125 C 9.421875 -2.953125 10.1875 -3.320312 10.65625 -4.0625 C 11.125 -4.8125 11.359375 -5.914062 11.359375 -7.375 C 11.359375 -8.832031 11.117188 -9.925781 10.640625 -10.65625 C 10.171875 -11.382812 9.398438 -11.75 8.328125 -11.75 C 7.253906 -11.75 6.476562 -11.382812 6 -10.65625 C 5.53125 -9.9375 5.296875 -8.84375 5.296875 -7.375 Z M 15.46875 -7.375 C 15.46875 -4.976562 14.835938 -3.101562 13.578125 -1.75 C 12.316406 -0.40625 10.554688 0.265625 8.296875 0.265625 C 6.890625 0.265625 5.644531 -0.0390625 4.5625 -0.65625 C 3.488281 -1.28125 2.660156 -2.171875 2.078125 -3.328125 C 1.492188 -4.484375 1.203125 -5.832031 1.203125 -7.375 C 1.203125 -9.78125 1.828125 -11.648438 3.078125 -12.984375 C 4.335938 -14.316406 6.101562 -14.984375 8.375 -14.984375 C 9.789062 -14.984375 11.035156 -14.675781 12.109375 -14.0625 C 13.191406 -13.445312 14.019531 -12.5625 14.59375 -11.40625 C 15.175781 -10.257812 15.46875 -8.914062 15.46875 -7.375 Z M 6.140625 -16.328125 L 6.140625 -16.671875 C 7.648438 -18.429688 8.679688 -19.753906 9.234375 -20.640625 L 13.734375 -20.640625 L 13.734375 -20.359375 C 13.273438 -19.898438 12.492188 -19.222656 11.390625 -18.328125 C 10.296875 -17.429688 9.4375 -16.765625 8.8125 -16.328125 Z M 6.140625 -16.328125 "/></g></g></g><g fill="#9d9d9d" fill-opacity="1"><g transform="translate(333.096977, 86.696012)"><g><path d="M 6.4375 -12.234375 L 7.359375 -12.796875 L 8.890625 -10.203125 L 6.4375 -8.734375 L 6.4375 0 L 2.421875 0 L 2.421875 -6.28125 L 1.484375 -5.703125 L 0 -8.296875 L 2.421875 -9.765625 L 2.421875 -20.46875 L 6.4375 -20.46875 Z M 6.4375 -12.234375 "/></g></g></g><g fill="#9d9d9d" fill-opacity="1"><g transform="translate(341.989423, 86.696012)"><g/></g></g><g fill="#9d9d9d" fill-opacity="1"><g transform="translate(348.987621, 86.696012)"><g><path d="M 9.84375 0 L 5.765625 0 L 5.765625 -15.84375 L 0.546875 -15.84375 L 0.546875 -19.234375 L 15.0625 -19.234375 L 15.0625 -15.84375 L 9.84375 -15.84375 Z M 9.84375 0 "/></g></g></g><g fill="#9d9d9d" fill-opacity="1"><g transform="translate(364.588865, 86.696012)"><g><path d="M 8.1875 -12.125 C 7.34375 -12.125 6.675781 -11.851562 6.1875 -11.3125 C 5.707031 -10.78125 5.429688 -10.015625 5.359375 -9.015625 L 11 -9.015625 C 10.976562 -10.015625 10.71875 -10.78125 10.21875 -11.3125 C 9.71875 -11.851562 9.039062 -12.125 8.1875 -12.125 Z M 8.765625 0.265625 C 6.390625 0.265625 4.535156 -0.382812 3.203125 -1.6875 C 1.867188 -3 1.203125 -4.851562 1.203125 -7.25 C 1.203125 -9.707031 1.816406 -11.609375 3.046875 -12.953125 C 4.285156 -14.304688 5.992188 -14.984375 8.171875 -14.984375 C 10.242188 -14.984375 11.859375 -14.390625 13.015625 -13.203125 C 14.171875 -12.023438 14.75 -10.390625 14.75 -8.296875 L 14.75 -6.359375 L 5.28125 -6.359375 C 5.320312 -5.210938 5.65625 -4.316406 6.28125 -3.671875 C 6.914062 -3.035156 7.800781 -2.71875 8.9375 -2.71875 C 9.820312 -2.71875 10.660156 -2.8125 11.453125 -3 C 12.242188 -3.1875 13.066406 -3.476562 13.921875 -3.875 L 13.921875 -0.78125 C 13.222656 -0.425781 12.472656 -0.164062 11.671875 0 C 10.878906 0.175781 9.910156 0.265625 8.765625 0.265625 Z M 8.765625 0.265625 "/></g></g></g><g fill="#9d9d9d" fill-opacity="1"><g transform="translate(380.505805, 86.696012)"><g><path d="M 8.078125 0.265625 C 3.492188 0.265625 1.203125 -2.25 1.203125 -7.28125 C 1.203125 -9.769531 1.828125 -11.675781 3.078125 -13 C 4.328125 -14.320312 6.113281 -14.984375 8.4375 -14.984375 C 10.132812 -14.984375 11.660156 -14.648438 13.015625 -13.984375 L 11.828125 -10.875 C 11.191406 -11.132812 10.601562 -11.34375 10.0625 -11.5 C 9.519531 -11.664062 8.976562 -11.75 8.4375 -11.75 C 6.34375 -11.75 5.296875 -10.265625 5.296875 -7.296875 C 5.296875 -4.421875 6.34375 -2.984375 8.4375 -2.984375 C 9.207031 -2.984375 9.921875 -3.085938 10.578125 -3.296875 C 11.234375 -3.503906 11.890625 -3.828125 12.546875 -4.265625 L 12.546875 -0.828125 C 11.898438 -0.410156 11.242188 -0.125 10.578125 0.03125 C 9.921875 0.1875 9.085938 0.265625 8.078125 0.265625 Z M 8.078125 0.265625 "/></g></g></g><g fill="#9d9d9d" fill-opacity="1"><g transform="translate(394.357506, 86.696012)"><g><path d="M 15.671875 0 L 11.671875 0 L 11.671875 -8.59375 C 11.671875 -10.707031 10.878906 -11.765625 9.296875 -11.765625 C 8.171875 -11.765625 7.359375 -11.382812 6.859375 -10.625 C 6.359375 -9.863281 6.109375 -8.628906 6.109375 -6.921875 L 6.109375 0 L 2.109375 0 L 2.109375 -20.46875 L 6.109375 -20.46875 L 6.109375 -16.296875 C 6.109375 -15.972656 6.082031 -15.210938 6.03125 -14.015625 L 5.9375 -12.828125 L 6.140625 -12.828125 C 7.035156 -14.265625 8.457031 -14.984375 10.40625 -14.984375 C 12.132812 -14.984375 13.441406 -14.515625 14.328125 -13.578125 C 15.222656 -12.648438 15.671875 -11.320312 15.671875 -9.59375 Z M 15.671875 0 "/></g></g></g><g fill="#9d9d9d" fill-opacity="1"><g transform="translate(412.063459, 86.696012)"><g><path d="M 15.671875 0 L 11.671875 0 L 11.671875 -8.59375 C 11.671875 -9.65625 11.476562 -10.445312 11.09375 -10.96875 C 10.71875 -11.5 10.117188 -11.765625 9.296875 -11.765625 C 8.171875 -11.765625 7.359375 -11.390625 6.859375 -10.640625 C 6.359375 -9.890625 6.109375 -8.648438 6.109375 -6.921875 L 6.109375 0 L 2.109375 0 L 2.109375 -14.703125 L 5.171875 -14.703125 L 5.703125 -12.828125 L 5.9375 -12.828125 C 6.382812 -13.535156 7 -14.070312 7.78125 -14.4375 C 8.5625 -14.800781 9.453125 -14.984375 10.453125 -14.984375 C 12.160156 -14.984375 13.457031 -14.519531 14.34375 -13.59375 C 15.226562 -12.664062 15.671875 -11.332031 15.671875 -9.59375 Z M 15.671875 0 "/></g></g></g><g fill="#9d9d9d" fill-opacity="1"><g transform="translate(429.769435, 86.696012)"><g><path d="M 1.9375 -18.5 C 1.9375 -19.8125 2.660156 -20.46875 4.109375 -20.46875 C 5.566406 -20.46875 6.296875 -19.8125 6.296875 -18.5 C 6.296875 -17.882812 6.113281 -17.398438 5.75 -17.046875 C 5.382812 -16.703125 4.835938 -16.53125 4.109375 -16.53125 C 2.660156 -16.53125 1.9375 -17.1875 1.9375 -18.5 Z M 6.109375 0 L 2.109375 0 L 2.109375 -14.703125 L 6.109375 -14.703125 Z M 6.109375 0 "/></g></g></g><g fill="#9d9d9d" fill-opacity="1"><g transform="translate(437.991007, 86.696012)"><g><path d="M 8.078125 0.265625 C 3.492188 0.265625 1.203125 -2.25 1.203125 -7.28125 C 1.203125 -9.769531 1.828125 -11.675781 3.078125 -13 C 4.328125 -14.320312 6.113281 -14.984375 8.4375 -14.984375 C 10.132812 -14.984375 11.660156 -14.648438 13.015625 -13.984375 L 11.828125 -10.875 C 11.191406 -11.132812 10.601562 -11.34375 10.0625 -11.5 C 9.519531 -11.664062 8.976562 -11.75 8.4375 -11.75 C 6.34375 -11.75 5.296875 -10.265625 5.296875 -7.296875 C 5.296875 -4.421875 6.34375 -2.984375 8.4375 -2.984375 C 9.207031 -2.984375 9.921875 -3.085938 10.578125 -3.296875 C 11.234375 -3.503906 11.890625 -3.828125 12.546875 -4.265625 L 12.546875 -0.828125 C 11.898438 -0.410156 11.242188 -0.125 10.578125 0.03125 C 9.921875 0.1875 9.085938 0.265625 8.078125 0.265625 Z M 8.078125 0.265625 "/></g></g></g><g fill="#9d9d9d" fill-opacity="1"><g transform="translate(451.842708, 86.696012)"><g><path d="M 12.34375 0 L 0.71875 0 L 0.71875 -2.375 L 7.53125 -11.640625 L 1.125 -11.640625 L 1.125 -14.703125 L 12.09375 -14.703125 L 12.09375 -12.09375 L 5.46875 -3.0625 L 12.34375 -3.0625 Z M 12.34375 0 "/></g></g></g><g fill="#9d9d9d" fill-opacity="1"><g transform="translate(464.984077, 86.696012)"><g><path d="M 15.671875 0 L 11.671875 0 L 11.671875 -8.59375 C 11.671875 -9.65625 11.476562 -10.445312 11.09375 -10.96875 C 10.71875 -11.5 10.117188 -11.765625 9.296875 -11.765625 C 8.171875 -11.765625 7.359375 -11.390625 6.859375 -10.640625 C 6.359375 -9.890625 6.109375 -8.648438 6.109375 -6.921875 L 6.109375 0 L 2.109375 0 L 2.109375 -14.703125 L 5.171875 -14.703125 L 5.703125 -12.828125 L 5.9375 -12.828125 C 6.382812 -13.535156 7 -14.070312 7.78125 -14.4375 C 8.5625 -14.800781 9.453125 -14.984375 10.453125 -14.984375 C 12.160156 -14.984375 13.457031 -14.519531 14.34375 -13.59375 C 15.226562 -12.664062 15.671875 -11.332031 15.671875 -9.59375 Z M 15.671875 0 "/></g></g></g><g fill="#9d9d9d" fill-opacity="1"><g transform="translate(482.690053, 86.696012)"><g><path d="M 0 -14.703125 L 4.390625 -14.703125 L 7.171875 -6.4375 C 7.410156 -5.71875 7.570312 -4.863281 7.65625 -3.875 L 7.734375 -3.875 C 7.828125 -4.78125 8.015625 -5.632812 8.296875 -6.4375 L 11.015625 -14.703125 L 15.328125 -14.703125 L 9.109375 1.875 C 8.535156 3.414062 7.71875 4.566406 6.65625 5.328125 C 5.601562 6.085938 4.367188 6.46875 2.953125 6.46875 C 2.265625 6.46875 1.585938 6.394531 0.921875 6.25 L 0.921875 3.0625 C 1.398438 3.175781 1.925781 3.234375 2.5 3.234375 C 3.207031 3.234375 3.828125 3.015625 4.359375 2.578125 C 4.890625 2.148438 5.304688 1.5 5.609375 0.625 L 5.84375 -0.109375 Z M 0 -14.703125 "/></g></g></g><g fill="#9d9d9d" fill-opacity="1"><g transform="translate(498.015058, 86.696012)"><g><path d="M 8.078125 0.265625 C 3.492188 0.265625 1.203125 -2.25 1.203125 -7.28125 C 1.203125 -9.769531 1.828125 -11.675781 3.078125 -13 C 4.328125 -14.320312 6.113281 -14.984375 8.4375 -14.984375 C 10.132812 -14.984375 11.660156 -14.648438 13.015625 -13.984375 L 11.828125 -10.875 C 11.191406 -11.132812 10.601562 -11.34375 10.0625 -11.5 C 9.519531 -11.664062 8.976562 -11.75 8.4375 -11.75 C 6.34375 -11.75 5.296875 -10.265625 5.296875 -7.296875 C 5.296875 -4.421875 6.34375 -2.984375 8.4375 -2.984375 C 9.207031 -2.984375 9.921875 -3.085938 10.578125 -3.296875 C 11.234375 -3.503906 11.890625 -3.828125 12.546875 -4.265625 L 12.546875 -0.828125 C 11.898438 -0.410156 11.242188 -0.125 10.578125 0.03125 C 9.921875 0.1875 9.085938 0.265625 8.078125 0.265625 Z M 8.078125 0.265625 "/></g></g></g><g fill="#9d9d9d" fill-opacity="1"><g transform="translate(511.866758, 86.696012)"><g><path d="M 15.671875 0 L 11.671875 0 L 11.671875 -8.59375 C 11.671875 -10.707031 10.878906 -11.765625 9.296875 -11.765625 C 8.171875 -11.765625 7.359375 -11.382812 6.859375 -10.625 C 6.359375 -9.863281 6.109375 -8.628906 6.109375 -6.921875 L 6.109375 0 L 2.109375 0 L 2.109375 -20.46875 L 6.109375 -20.46875 L 6.109375 -16.296875 C 6.109375 -15.972656 6.082031 -15.210938 6.03125 -14.015625 L 5.9375 -12.828125 L 6.140625 -12.828125 C 7.035156 -14.265625 8.457031 -14.984375 10.40625 -14.984375 C 12.132812 -14.984375 13.441406 -14.515625 14.328125 -13.578125 C 15.222656 -12.648438 15.671875 -11.320312 15.671875 -9.59375 Z M 15.671875 0 "/></g></g></g><g fill="#9d9d9d" fill-opacity="1"><g transform="translate(262.527926, 121.134839)"><g><path d="M 7.609375 0 L 5.625 0 L 5.625 -15.328125 L 0.203125 -15.328125 L 0.203125 -17.09375 L 13.03125 -17.09375 L 13.03125 -15.328125 L 7.609375 -15.328125 Z M 7.609375 0 "/></g></g><g transform="translate(275.781728, 121.134839)"><g><path d="M 9.9375 0 L 9.5625 -1.828125 L 9.46875 -1.828125 C 8.820312 -1.023438 8.179688 -0.476562 7.546875 -0.1875 C 6.910156 0.09375 6.117188 0.234375 5.171875 0.234375 C 3.898438 0.234375 2.898438 -0.09375 2.171875 -0.75 C 1.453125 -1.40625 1.09375 -2.335938 1.09375 -3.546875 C 1.09375 -6.128906 3.164062 -7.484375 7.3125 -7.609375 L 9.484375 -7.6875 L 9.484375 -8.484375 C 9.484375 -9.484375 9.265625 -10.222656 8.828125 -10.703125 C 8.398438 -11.179688 7.710938 -11.421875 6.765625 -11.421875 C 5.691406 -11.421875 4.484375 -11.09375 3.140625 -10.4375 L 2.53125 -11.9375 C 3.164062 -12.269531 3.859375 -12.535156 4.609375 -12.734375 C 5.367188 -12.929688 6.125 -13.03125 6.875 -13.03125 C 8.40625 -13.03125 9.535156 -12.691406 10.265625 -12.015625 C 11.003906 -11.335938 11.375 -10.25 11.375 -8.75 L 11.375 0 Z M 5.5625 -1.375 C 6.769531 -1.375 7.71875 -1.703125 8.40625 -2.359375 C 9.09375 -3.023438 9.4375 -3.953125 9.4375 -5.140625 L 9.4375 -6.296875 L 7.5 -6.21875 C 5.957031 -6.164062 4.84375 -5.925781 4.15625 -5.5 C 3.476562 -5.070312 3.140625 -4.410156 3.140625 -3.515625 C 3.140625 -2.816406 3.347656 -2.285156 3.765625 -1.921875 C 4.191406 -1.554688 4.789062 -1.375 5.5625 -1.375 Z M 5.5625 -1.375 "/></g></g><g transform="translate(289.105717, 121.134839)"><g><path d="M 7.90625 -13.046875 C 8.476562 -13.046875 8.988281 -13 9.4375 -12.90625 L 9.171875 -11.109375 C 8.640625 -11.222656 8.171875 -11.28125 7.765625 -11.28125 C 6.722656 -11.28125 5.832031 -10.859375 5.09375 -10.015625 C 4.363281 -9.179688 4 -8.132812 4 -6.875 L 4 0 L 2.0625 0 L 2.0625 -12.8125 L 3.65625 -12.8125 L 3.890625 -10.4375 L 3.984375 -10.4375 C 4.453125 -11.28125 5.019531 -11.925781 5.6875 -12.375 C 6.363281 -12.820312 7.101562 -13.046875 7.90625 -13.046875 Z M 7.90625 -13.046875 "/></g></g><g transform="translate(298.885221, 121.134839)"><g><path d="M 10.828125 0 L 10.828125 -8.296875 C 10.828125 -9.335938 10.585938 -10.113281 10.109375 -10.625 C 9.640625 -11.144531 8.898438 -11.40625 7.890625 -11.40625 C 6.546875 -11.40625 5.5625 -11.039062 4.9375 -10.3125 C 4.3125 -9.59375 4 -8.394531 4 -6.71875 L 4 0 L 2.0625 0 L 2.0625 -12.8125 L 3.640625 -12.8125 L 3.953125 -11.0625 L 4.046875 -11.0625 C 4.441406 -11.695312 5 -12.1875 5.71875 -12.53125 C 6.4375 -12.875 7.234375 -13.046875 8.109375 -13.046875 C 9.660156 -13.046875 10.820312 -12.671875 11.59375 -11.921875 C 12.375 -11.179688 12.765625 -9.992188 12.765625 -8.359375 L 12.765625 0 Z M 10.828125 0 "/></g></g><g transform="translate(313.589571, 121.134839)"><g><path d="M 13.125 -6.421875 C 13.125 -4.328125 12.597656 -2.691406 11.546875 -1.515625 C 10.492188 -0.347656 9.039062 0.234375 7.1875 0.234375 C 6.039062 0.234375 5.019531 -0.03125 4.125 -0.5625 C 3.238281 -1.101562 2.550781 -1.875 2.0625 -2.875 C 1.582031 -3.882812 1.34375 -5.066406 1.34375 -6.421875 C 1.34375 -8.515625 1.863281 -10.140625 2.90625 -11.296875 C 3.957031 -12.460938 5.410156 -13.046875 7.265625 -13.046875 C 9.054688 -13.046875 10.476562 -12.445312 11.53125 -11.25 C 12.59375 -10.0625 13.125 -8.453125 13.125 -6.421875 Z M 3.359375 -6.421875 C 3.359375 -4.785156 3.6875 -3.535156 4.34375 -2.671875 C 5 -1.816406 5.960938 -1.390625 7.234375 -1.390625 C 8.503906 -1.390625 9.46875 -1.816406 10.125 -2.671875 C 10.78125 -3.523438 11.109375 -4.773438 11.109375 -6.421875 C 11.109375 -8.046875 10.78125 -9.28125 10.125 -10.125 C 9.46875 -10.976562 8.492188 -11.40625 7.203125 -11.40625 C 5.929688 -11.40625 4.972656 -10.988281 4.328125 -10.15625 C 3.679688 -9.320312 3.359375 -8.078125 3.359375 -6.421875 Z M 5.59375 -14.8125 C 5.96875 -15.289062 6.367188 -15.875 6.796875 -16.5625 C 7.234375 -17.25 7.578125 -17.84375 7.828125 -18.34375 L 10.1875 -18.34375 L 10.1875 -18.109375 C 9.84375 -17.597656 9.332031 -16.972656 8.65625 -16.234375 C 7.976562 -15.492188 7.390625 -14.921875 6.890625 -14.515625 L 5.59375 -14.515625 Z M 5.59375 -14.8125 "/></g></g><g transform="translate(328.059962, 121.134839)"><g><path d="M 12.53125 0 L 10.171875 -7.515625 C 10.023438 -7.972656 9.75 -9.019531 9.34375 -10.65625 L 9.25 -10.65625 C 8.9375 -9.289062 8.664062 -8.238281 8.4375 -7.5 L 6.015625 0 L 3.765625 0 L 0.265625 -12.8125 L 2.296875 -12.8125 C 3.128906 -9.59375 3.757812 -7.140625 4.1875 -5.453125 C 4.625 -3.773438 4.875 -2.644531 4.9375 -2.0625 L 5.03125 -2.0625 C 5.113281 -2.5 5.25 -3.070312 5.4375 -3.78125 C 5.632812 -4.488281 5.800781 -5.050781 5.9375 -5.46875 L 8.296875 -12.8125 L 10.390625 -12.8125 L 12.6875 -5.46875 C 13.125 -4.125 13.421875 -2.992188 13.578125 -2.078125 L 13.671875 -2.078125 C 13.703125 -2.359375 13.785156 -2.789062 13.921875 -3.375 C 14.054688 -3.957031 14.867188 -7.101562 16.359375 -12.8125 L 18.375 -12.8125 L 14.828125 0 Z M 12.53125 0 "/></g></g><g transform="translate(346.69483, 121.134839)"><g><path d="M 0.984375 -5.53125 L 0.984375 -7.3125 L 6.71875 -7.3125 L 6.71875 -5.53125 Z M 0.984375 -5.53125 "/></g></g><g transform="translate(354.403793, 121.134839)"><g><path d="M 9.921875 0 L 4.109375 -15.15625 L 4.015625 -15.15625 C 4.128906 -13.957031 4.1875 -12.53125 4.1875 -10.875 L 4.1875 0 L 2.34375 0 L 2.34375 -17.09375 L 5.34375 -17.09375 L 10.765625 -3 L 10.859375 -3 L 16.3125 -17.09375 L 19.28125 -17.09375 L 19.28125 0 L 17.296875 0 L 17.296875 -11.015625 C 17.296875 -12.273438 17.351562 -13.648438 17.46875 -15.140625 L 17.375 -15.140625 L 11.515625 0 Z M 9.921875 0 "/></g></g><g transform="translate(376.033342, 121.134839)"><g><path d="M 13.125 -6.421875 C 13.125 -4.328125 12.597656 -2.691406 11.546875 -1.515625 C 10.492188 -0.347656 9.039062 0.234375 7.1875 0.234375 C 6.039062 0.234375 5.019531 -0.03125 4.125 -0.5625 C 3.238281 -1.101562 2.550781 -1.875 2.0625 -2.875 C 1.582031 -3.882812 1.34375 -5.066406 1.34375 -6.421875 C 1.34375 -8.515625 1.863281 -10.140625 2.90625 -11.296875 C 3.957031 -12.460938 5.410156 -13.046875 7.265625 -13.046875 C 9.054688 -13.046875 10.476562 -12.445312 11.53125 -11.25 C 12.59375 -10.0625 13.125 -8.453125 13.125 -6.421875 Z M 3.359375 -6.421875 C 3.359375 -4.785156 3.6875 -3.535156 4.34375 -2.671875 C 5 -1.816406 5.960938 -1.390625 7.234375 -1.390625 C 8.503906 -1.390625 9.46875 -1.816406 10.125 -2.671875 C 10.78125 -3.523438 11.109375 -4.773438 11.109375 -6.421875 C 11.109375 -8.046875 10.78125 -9.28125 10.125 -10.125 C 9.46875 -10.976562 8.492188 -11.40625 7.203125 -11.40625 C 5.929688 -11.40625 4.972656 -10.988281 4.328125 -10.15625 C 3.679688 -9.320312 3.359375 -8.078125 3.359375 -6.421875 Z M 3.359375 -6.421875 "/></g></g><g transform="translate(390.503733, 121.134839)"><g><path d="M 10.328125 -3.5 C 10.328125 -2.300781 9.878906 -1.378906 8.984375 -0.734375 C 8.097656 -0.0859375 6.851562 0.234375 5.25 0.234375 C 3.550781 0.234375 2.226562 -0.0351562 1.28125 -0.578125 L 1.28125 -2.375 C 1.894531 -2.0625 2.550781 -1.816406 3.25 -1.640625 C 3.957031 -1.460938 4.640625 -1.375 5.296875 -1.375 C 6.304688 -1.375 7.082031 -1.535156 7.625 -1.859375 C 8.175781 -2.179688 8.453125 -2.671875 8.453125 -3.328125 C 8.453125 -3.828125 8.234375 -4.253906 7.796875 -4.609375 C 7.367188 -4.960938 6.53125 -5.382812 5.28125 -5.875 C 4.082031 -6.3125 3.234375 -6.695312 2.734375 -7.03125 C 2.234375 -7.363281 1.859375 -7.738281 1.609375 -8.15625 C 1.359375 -8.582031 1.234375 -9.085938 1.234375 -9.671875 C 1.234375 -10.710938 1.660156 -11.535156 2.515625 -12.140625 C 3.367188 -12.742188 4.535156 -13.046875 6.015625 -13.046875 C 7.390625 -13.046875 8.738281 -12.765625 10.0625 -12.203125 L 9.375 -10.625 C 8.082031 -11.15625 6.914062 -11.421875 5.875 -11.421875 C 4.945312 -11.421875 4.25 -11.273438 3.78125 -10.984375 C 3.320312 -10.703125 3.09375 -10.304688 3.09375 -9.796875 C 3.09375 -9.453125 3.175781 -9.160156 3.34375 -8.921875 C 3.519531 -8.679688 3.800781 -8.453125 4.1875 -8.234375 C 4.582031 -8.015625 5.332031 -7.695312 6.4375 -7.28125 C 7.957031 -6.726562 8.984375 -6.171875 9.515625 -5.609375 C 10.054688 -5.046875 10.328125 -4.34375 10.328125 -3.5 Z M 4.34375 -14.8125 C 4.71875 -15.289062 5.117188 -15.875 5.546875 -16.5625 C 5.984375 -17.25 6.328125 -17.84375 6.578125 -18.34375 L 8.9375 -18.34375 L 8.9375 -18.109375 C 8.59375 -17.597656 8.082031 -16.972656 7.40625 -16.234375 C 6.726562 -15.492188 6.140625 -14.921875 5.640625 -14.515625 L 4.34375 -14.515625 Z M 4.34375 -14.8125 "/></g></g><g transform="translate(401.932651, 121.134839)"><g><path d="M 7.1875 0.234375 C 5.320312 0.234375 3.878906 -0.332031 2.859375 -1.46875 C 1.847656 -2.613281 1.34375 -4.234375 1.34375 -6.328125 C 1.34375 -8.472656 1.859375 -10.128906 2.890625 -11.296875 C 3.921875 -12.460938 5.394531 -13.046875 7.3125 -13.046875 C 7.925781 -13.046875 8.539062 -12.976562 9.15625 -12.84375 C 9.769531 -12.71875 10.253906 -12.566406 10.609375 -12.390625 L 10.015625 -10.734375 C 9.585938 -10.910156 9.117188 -11.050781 8.609375 -11.15625 C 8.097656 -11.269531 7.648438 -11.328125 7.265625 -11.328125 C 4.660156 -11.328125 3.359375 -9.664062 3.359375 -6.34375 C 3.359375 -4.769531 3.675781 -3.5625 4.3125 -2.71875 C 4.945312 -1.882812 5.890625 -1.46875 7.140625 -1.46875 C 8.203125 -1.46875 9.296875 -1.695312 10.421875 -2.15625 L 10.421875 -0.4375 C 9.566406 0.0078125 8.488281 0.234375 7.1875 0.234375 Z M 7.1875 0.234375 "/></g></g><g transform="translate(413.338173, 121.134839)"><g><path d="M 4 0 L 2.0625 0 L 2.0625 -12.8125 L 4 -12.8125 Z M 1.890625 -16.296875 C 1.890625 -16.734375 2 -17.054688 2.21875 -17.265625 C 2.4375 -17.472656 2.710938 -17.578125 3.046875 -17.578125 C 3.359375 -17.578125 3.625 -17.472656 3.84375 -17.265625 C 4.070312 -17.054688 4.1875 -16.734375 4.1875 -16.296875 C 4.1875 -15.859375 4.070312 -15.53125 3.84375 -15.3125 C 3.625 -15.101562 3.359375 -15 3.046875 -15 C 2.710938 -15 2.4375 -15.101562 2.21875 -15.3125 C 2 -15.53125 1.890625 -15.859375 1.890625 -16.296875 Z M 1.890625 -16.296875 "/></g></g><g transform="translate(419.397722, 121.134839)"><g><path d="M 7.1875 0.234375 C 5.320312 0.234375 3.878906 -0.332031 2.859375 -1.46875 C 1.847656 -2.613281 1.34375 -4.234375 1.34375 -6.328125 C 1.34375 -8.472656 1.859375 -10.128906 2.890625 -11.296875 C 3.921875 -12.460938 5.394531 -13.046875 7.3125 -13.046875 C 7.925781 -13.046875 8.539062 -12.976562 9.15625 -12.84375 C 9.769531 -12.71875 10.253906 -12.566406 10.609375 -12.390625 L 10.015625 -10.734375 C 9.585938 -10.910156 9.117188 -11.050781 8.609375 -11.15625 C 8.097656 -11.269531 7.648438 -11.328125 7.265625 -11.328125 C 4.660156 -11.328125 3.359375 -9.664062 3.359375 -6.34375 C 3.359375 -4.769531 3.675781 -3.5625 4.3125 -2.71875 C 4.945312 -1.882812 5.890625 -1.46875 7.140625 -1.46875 C 8.203125 -1.46875 9.296875 -1.695312 10.421875 -2.15625 L 10.421875 -0.4375 C 9.566406 0.0078125 8.488281 0.234375 7.1875 0.234375 Z M 7.1875 0.234375 "/></g></g><g transform="translate(430.803244, 121.134839)"><g><path d="M 7.46875 0.234375 C 5.570312 0.234375 4.078125 -0.34375 2.984375 -1.5 C 1.890625 -2.65625 1.34375 -4.253906 1.34375 -6.296875 C 1.34375 -8.367188 1.847656 -10.007812 2.859375 -11.21875 C 3.878906 -12.4375 5.25 -13.046875 6.96875 -13.046875 C 8.570312 -13.046875 9.84375 -12.519531 10.78125 -11.46875 C 11.71875 -10.414062 12.1875 -9.019531 12.1875 -7.28125 L 12.1875 -6.0625 L 3.359375 -6.0625 C 3.398438 -4.550781 3.78125 -3.40625 4.5 -2.625 C 5.21875 -1.851562 6.234375 -1.46875 7.546875 -1.46875 C 8.921875 -1.46875 10.285156 -1.753906 11.640625 -2.328125 L 11.640625 -0.59375 C 10.953125 -0.300781 10.300781 -0.09375 9.6875 0.03125 C 9.070312 0.164062 8.332031 0.234375 7.46875 0.234375 Z M 6.953125 -11.421875 C 5.921875 -11.421875 5.097656 -11.085938 4.484375 -10.421875 C 3.867188 -9.753906 3.507812 -8.828125 3.40625 -7.640625 L 10.109375 -7.640625 C 10.109375 -8.859375 9.832031 -9.789062 9.28125 -10.4375 C 8.738281 -11.09375 7.960938 -11.421875 6.953125 -11.421875 Z M 6.953125 -11.421875 "/></g></g></g></svg>